<svg width="38" height="38" viewBox="0 0 38 38" fill="none" xmlns="http://www.w3.org/2000/svg">
<g clip-path="url(#clip0_274_191)">
<path d="M10.6217 35.8797C9.30657 35.865 8.00384 35.6238 6.77067 35.1667C5.87015 34.8338 5.0554 34.3039 4.386 33.6157C3.69592 32.9476 3.16523 32.1326 2.83333 31.2313C2.37658 29.9982 2.13573 28.6956 2.12133 27.3807C2.02033 25.1947 2 24.539 2 19C2 13.461 2.02233 12.8077 2.12033 10.62C2.13647 9.30559 2.37763 8.00366 2.83333 6.77067C3.16684 5.87 3.69679 5.05493 4.38467 4.38467C5.05324 3.69521 5.86837 3.16501 6.76967 2.83333C8.00284 2.37621 9.30557 2.13501 10.6207 2.12033C12.8073 2.02033 13.464 2 19 2C24.536 2 25.1923 2.02233 27.38 2.12033C28.6947 2.13636 29.997 2.37752 31.2303 2.83333C32.1312 3.16545 32.9461 3.69546 33.615 4.38433C34.3041 5.05341 34.8343 5.86853 35.1667 6.76967C35.6239 8.00282 35.8652 9.30555 35.88 10.6207C35.98 12.8083 36.0003 13.4633 36.0003 19.0007C36.0003 24.538 35.98 25.193 35.88 27.3807C35.8641 28.6956 35.6229 29.998 35.1667 31.2313C34.8216 32.1257 34.2931 32.9379 33.6151 33.6157C32.9372 34.2935 32.1248 34.8218 31.2303 35.1667C29.9972 35.6239 28.6944 35.8652 27.3793 35.88C25.1937 35.98 24.5367 36.0003 18.9993 36.0003C13.462 36.0003 12.807 35.981 10.6213 35.88" fill="url(#paint0_radial_274_191)"/>
<path d="M10.6217 35.8797C9.30657 35.865 8.00384 35.6238 6.77067 35.1667C5.87015 34.8338 5.0554 34.3039 4.386 33.6157C3.69592 32.9476 3.16523 32.1326 2.83333 31.2313C2.37658 29.9982 2.13573 28.6956 2.12133 27.3807C2.02033 25.1947 2 24.539 2 19C2 13.461 2.02233 12.8077 2.12033 10.62C2.13647 9.30559 2.37763 8.00366 2.83333 6.77067C3.16684 5.87 3.69679 5.05493 4.38467 4.38467C5.05324 3.69521 5.86837 3.16501 6.76967 2.83333C8.00284 2.37621 9.30557 2.13501 10.6207 2.12033C12.8073 2.02033 13.464 2 19 2C24.536 2 25.1923 2.02233 27.38 2.12033C28.6947 2.13636 29.997 2.37752 31.2303 2.83333C32.1312 3.16545 32.9461 3.69546 33.615 4.38433C34.3041 5.05341 34.8343 5.86853 35.1667 6.76967C35.6239 8.00282 35.8652 9.30555 35.88 10.6207C35.98 12.8083 36.0003 13.4633 36.0003 19.0007C36.0003 24.538 35.98 25.193 35.88 27.3807C35.8641 28.6956 35.6229 29.998 35.1667 31.2313C34.8216 32.1257 34.2931 32.9379 33.6151 33.6157C32.9372 34.2935 32.1248 34.8218 31.2303 35.1667C29.9972 35.6239 28.6944 35.8652 27.3793 35.88C25.1937 35.98 24.5367 36.0003 18.9993 36.0003C13.462 36.0003 12.807 35.981 10.6213 35.88" fill="url(#paint1_radial_274_191)"/>
<path d="M14.8256 19.0723C14.8257 18.2396 15.0727 17.4256 15.5354 16.7332C15.9981 16.0409 16.6557 15.5013 17.4251 15.1827C18.1945 14.8641 19.0411 14.7808 19.8578 14.9433C20.6745 15.1059 21.4247 15.507 22.0135 16.0959C22.6022 16.6848 23.0031 17.4351 23.1655 18.2518C23.3279 19.0686 23.2444 19.9151 22.9256 20.6844C22.6068 21.4538 22.067 22.1112 21.3746 22.5738C20.6821 23.0363 19.868 23.2832 19.0353 23.283C17.9187 23.2828 16.8479 22.8391 16.0585 22.0495C15.269 21.2598 14.8255 20.1889 14.8256 19.0723ZM12.5493 19.0723C12.5493 20.3552 12.9297 21.6092 13.6424 22.6758C14.3551 23.7424 15.3681 24.5737 16.5532 25.0646C17.7384 25.5555 19.0425 25.684 20.3006 25.4337C21.5588 25.1835 22.7145 24.5657 23.6216 23.6586C24.5287 22.7516 25.1464 21.5959 25.3967 20.3377C25.6469 19.0795 25.5185 17.7754 25.0276 16.5903C24.5367 15.4051 23.7053 14.3921 22.6387 13.6794C21.5721 12.9667 20.3181 12.5863 19.0353 12.5863C18.1835 12.5863 17.3401 12.754 16.5532 13.08C15.7662 13.4059 15.0512 13.8837 14.4489 14.486C13.8466 15.0882 13.3689 15.8033 13.0429 16.5902C12.717 17.3771 12.5493 18.2206 12.5493 19.0723ZM24.2623 12.3293C24.2622 12.6291 24.3509 12.9222 24.5174 13.1715C24.6838 13.4208 24.9204 13.6152 25.1973 13.7301C25.4742 13.8449 25.779 13.875 26.073 13.8167C26.367 13.7583 26.6372 13.6141 26.8492 13.4022C27.0613 13.1903 27.2058 12.9203 27.2644 12.6264C27.323 12.3324 27.2931 12.0276 27.1785 11.7506C27.0639 11.4736 26.8698 11.2368 26.6206 11.0702C26.3714 10.9035 26.0784 10.8145 25.7786 10.8144C25.3768 10.8145 24.9915 10.9742 24.7073 11.2582C24.4231 11.5423 24.2633 11.9275 24.263 12.3293M13.933 29.354C13.132 29.3452 12.3385 29.1986 11.5873 28.9207C11.0425 28.7107 10.5477 28.389 10.1347 27.9762C9.72179 27.5634 9.39985 27.0687 9.18963 26.524C8.91155 25.7728 8.76497 24.9793 8.7563 24.1783C8.69496 22.847 8.68296 22.447 8.68296 19.074C8.68296 15.701 8.6963 15.302 8.7563 13.9693C8.76601 13.1685 8.91257 12.3752 9.18963 11.6237C9.3996 11.0787 9.72145 10.5838 10.1344 10.1708C10.5474 9.75784 11.0423 9.43599 11.5873 9.22601C12.3385 8.94794 13.132 8.80136 13.933 8.79268C15.2643 8.73135 15.6643 8.71935 19.036 8.71935C22.4076 8.71935 22.808 8.73235 24.1406 8.79302C24.9415 8.80274 25.7348 8.94929 26.4863 9.22635C27.0313 9.43634 27.5262 9.75819 27.9391 10.1712C28.3521 10.5841 28.674 11.079 28.884 11.624C29.162 12.3752 29.3086 13.1687 29.3173 13.9697C29.3786 15.303 29.3906 15.701 29.3906 19.0744C29.3906 22.4477 29.3783 22.8463 29.3173 24.179C29.308 24.9799 29.1614 25.7733 28.884 26.5247C28.6737 27.0694 28.3518 27.5641 27.9389 27.9768C27.5259 28.3896 27.0311 28.7114 26.4863 28.9213C25.7351 29.1994 24.9416 29.346 24.1406 29.3547C22.8093 29.416 22.4093 29.428 19.036 29.428C15.6626 29.428 15.264 29.4157 13.933 29.3547M13.8283 6.51835C12.7802 6.53896 11.7433 6.73732 10.7616 7.10501C9.92246 7.42947 9.16036 7.9257 8.52417 8.56189C7.88798 9.19808 7.39175 9.96018 7.06729 10.7993C6.69965 11.781 6.50129 12.818 6.48063 13.866C6.4183 15.2127 6.4043 15.6433 6.4043 19.0737C6.4043 22.504 6.41863 22.9344 6.48063 24.2814C6.50128 25.3294 6.69965 26.3663 7.06729 27.348C7.39177 28.1872 7.888 28.9493 8.52419 29.5854C9.16038 30.2216 9.92247 30.7179 10.7616 31.0423C11.7433 31.4099 12.7803 31.6082 13.8283 31.629C15.1756 31.6903 15.6056 31.7054 19.036 31.7054C22.4663 31.7054 22.8966 31.691 24.2436 31.629C25.2917 31.6083 26.3286 31.4099 27.3103 31.0423C28.1494 30.7179 28.9115 30.2216 29.5477 29.5854C30.1839 28.9493 30.6802 28.1872 31.0046 27.348C31.3728 26.3665 31.5711 25.3295 31.5913 24.2814C31.6526 22.9337 31.6666 22.504 31.6666 19.0737C31.6666 15.6433 31.6523 15.213 31.5913 13.866C31.5707 12.818 31.3723 11.781 31.0046 10.7993C30.6802 9.96034 30.1841 9.19835 29.5481 8.56218C28.9121 7.92602 28.1502 7.42969 27.3113 7.10501C26.3297 6.73709 25.2927 6.53871 24.2446 6.51835C22.8976 6.45668 22.4673 6.44202 19.0376 6.44202C15.608 6.44202 15.1766 6.45635 13.829 6.51835" fill="white"/>
</g>
<defs>
<radialGradient id="paint0_radial_274_191" cx="0" cy="0" r="1" gradientUnits="userSpaceOnUse" gradientTransform="translate(4.20033 35.2553) scale(43.1673)">
<stop offset="0.09" stop-color="#FA8F21"/>
<stop offset="0.78" stop-color="#D82D7E"/>
</radialGradient>
<radialGradient id="paint1_radial_274_191" cx="0" cy="0" r="1" gradientUnits="userSpaceOnUse" gradientTransform="translate(25.5507 34.1633) scale(37.9877)">
<stop offset="0.64" stop-color="#8C3AAA" stop-opacity="0"/>
<stop offset="1" stop-color="#8C3AAA"/>
</radialGradient>
<clipPath id="clip0_274_191">
<rect width="34" height="34" fill="white" transform="translate(2 2)"/>
</clipPath>
</defs>
</svg>
